<?xml version="1.0" encoding="iso-8859-1"?>
<!-- Generator: Adobe Illustrator 19.0.0, SVG Export Plug-In . SVG Version: 6.00 Build 0)  -->
<svg version="1.1" id="Layer_1" xmlns="http://www.w3.org/2000/svg" xmlns:xlink="http://www.w3.org/1999/xlink" x="0px" y="0px"
	 viewBox="0 0 512.002 512.002" style="enable-background:new 0 0 512.002 512.002;" xml:space="preserve">
<path style="fill:#FFCD00;" d="M221.33,199.642l-40.321,12.982c-8.688,2.798-17.999-1.978-20.796-10.667l-28.909-89.79
	c-2.798-8.688,1.978-17.999,10.667-20.796l40.321-12.982c8.688-2.798,17.999,1.978,20.796,10.667l28.909,89.79
	C234.795,187.534,230.019,196.845,221.33,199.642z"/>
<path style="opacity:0.13;fill:#663A00;enable-background:new    ;" d="M231.997,178.835l-28.909-89.79
	c-2.716-8.435-11.57-13.161-20.034-10.869l28.181,87.528c2.798,8.688-1.978,18-10.667,20.796l-40.321,12.982
	c-0.253,0.082-0.507,0.135-0.762,0.204l0.728,2.262c2.798,8.688,12.108,13.464,20.796,10.667l40.321-12.982
	C230.019,196.835,234.795,187.523,231.997,178.835z"/>
<path style="fill:#FFCD00;" d="M289.084,176.191l46.145,11.329c8.864,2.176,17.815-3.246,19.99-12.11l24.566-100.066
	c2.176-8.864-3.246-17.815-12.11-19.99l-46.145-11.329c-8.864-2.176-17.815,3.246-19.99,12.11L276.974,156.2
	C274.799,165.065,280.22,174.015,289.084,176.191z"/>
<path style="opacity:0.13;fill:#663A00;enable-background:new    ;" d="M367.675,54.968l-2.618-0.642l-24.088,98.122
	c-2.176,8.864-11.126,14.286-19.99,12.11l-43.527-10.685l-0.478,1.945c-2.176,8.864,3.246,17.815,12.11,19.99l46.145,11.329
	c8.864,2.176,17.815-3.246,19.99-12.11l24.566-100.066C381.962,66.094,376.54,57.144,367.675,54.968z"/>
<path style="fill:#3EAC92;" d="M266.648,502.851c0,0,18.825-123.689,100.638-236.086c0,0-31.349,123.102-57.297,236.086H266.648z"/>
<path style="opacity:0.19;fill:#266659;enable-background:new    ;" d="M351.914,289.117
	c-10.192,40.572-53.074,129.929-72.32,213.734h30.397c25.948-112.984,57.297-236.086,57.297-236.086
	C361.89,274.18,356.774,281.644,351.914,289.117z"/>
<path style="fill:#3EAC92;" d="M261.526,502.851c0,0-18.825-123.689-100.638-236.086c0,0,31.349,123.102,57.297,236.086H261.526z"/>
<path style="opacity:0.19;fill:#266659;enable-background:new    ;" d="M161.223,266.766c0,0,31.349,123.102,57.297,236.086h30.538
	c-18.62-81.075-59.206-167.355-69.809-209.626C173.61,284.379,167.608,275.538,161.223,266.766z"/>
<path d="M333.4,196.419c1.928,0.475,3.877,0.708,5.814,0.708c4.367,0,8.664-1.191,12.494-3.512
	c5.529-3.349,9.422-8.651,10.963-14.928L387.236,78.62c1.543-6.277,0.546-12.779-2.803-18.307
	c-3.349-5.529-8.651-9.422-14.928-10.963l-12.354-3.033c7.583-22.962,12.563-35.7,12.618-35.84c1.548-3.943-0.395-8.396-4.337-9.945
	c-3.944-1.549-8.396,0.394-9.945,4.335c-0.233,0.593-5.364,13.709-13.283,37.779l-18.844-4.626
	c-12.959-3.175-26.09,4.775-29.27,17.732l-24.565,100.067c-1.543,6.277-0.546,12.779,2.803,18.307s8.651,9.421,14.928,10.962v0.001
	l14.834,3.641c-18.39,80.84-31.222,162.404-38.312,243.404c-11.931-73.533-29.028-147.177-51.036-219.827l12.163-3.916l0,0
	c12.701-4.09,19.708-17.75,15.619-30.45l-28.909-89.79c-4.09-12.701-17.75-19.71-30.45-15.618l-15.85,5.103
	c-8.893-21.697-14.486-33.463-14.741-33.998c-1.825-3.825-6.4-5.443-10.226-3.622c-3.825,1.824-5.446,6.402-3.623,10.226
	c0.06,0.126,5.464,11.503,13.94,32.112l-9.823,3.163c-12.7,4.09-19.707,17.75-15.617,30.45l28.909,89.79
	c3.299,10.245,12.825,16.784,23.051,16.784c2.451,0,4.944-0.375,7.399-1.167l13.55-4.363
	c19.784,65.341,35.565,131.488,47.139,197.62c-14.488-40.997-39.086-97.22-78.182-150.933c-2.164-2.975-6.136-3.993-9.465-2.428
	c-3.33,1.564-5.08,5.272-4.172,8.837c0.313,1.231,31.625,124.311,57.254,235.91c0.8,3.484,3.901,5.954,7.477,5.954h43.341
	c0.788,0,1.56-0.128,2.296-0.359c0.715,0.226,1.47,0.353,2.249,0.358c0.077,0.006,0.151,0.018,0.229,0.021
	c0.119,0.005,0.237,0.008,0.356,0.008c0.199,0,0.396-0.014,0.591-0.029h42.743c3.575,0,6.676-2.469,7.477-5.954
	c25.632-111.599,56.942-234.68,57.255-235.91c0.908-3.564-0.842-7.272-4.171-8.837c-3.329-1.563-7.299-0.544-9.465,2.428
	c-41.829,57.466-67.062,117.805-81.072,159.297c7.19-76.773,19.569-154.013,36.981-230.605L333.4,196.419z M179.881,206.77
	c-4.648,1.499-9.647-1.067-11.143-5.715l-28.908-89.79c-1.496-4.647,1.067-9.646,5.715-11.143l40.32-12.98
	c0.899-0.289,1.811-0.428,2.708-0.428c3.743,0,7.229,2.394,8.436,6.142l28.909,89.79c1.496,4.647-1.068,9.646-5.716,11.143l0,0
	L179.881,206.77z M224.291,496.629c-15.983-69.303-33.883-142.073-45.042-186.828c48.855,81.03,67.822,160.78,73.058,186.828
	H224.291z M303.883,496.629h-28.021c5.221-26.034,24.15-105.742,73.066-186.841C337.77,354.541,319.866,427.319,303.883,496.629z
	 M290.913,170.191c-2.297-0.565-4.238-1.99-5.463-4.013c-1.224-2.023-1.59-4.402-1.025-6.699l24.566-100.067
	c1.163-4.742,5.962-7.66,10.711-6.488l46.145,11.329c2.297,0.564,4.238,1.987,5.463,4.011c1.224,2.023,1.59,4.403,1.025,6.7
	l-24.566,100.066c-0.564,2.297-1.987,4.238-4.011,5.463c-2.023,1.225-4.404,1.591-6.7,1.025l-24.07-5.908
	c-0.001,0-0.002,0-0.004-0.001c-0.001,0-0.001,0-0.001,0L290.913,170.191L290.913,170.191z"/>
<path d="M166.476,119.177c-1.312-4.028-5.643-6.235-9.67-4.918c-4.028,1.312-6.23,5.642-4.918,9.67l14.795,45.409
	c1.056,3.24,4.061,5.298,7.292,5.298c0.788,0,1.589-0.122,2.378-0.38c4.028-1.312,6.23-5.642,4.918-9.67L166.476,119.177z"/>
<path d="M314.172,124.624c3.391,0,6.494-2.267,7.408-5.7l12.291-46.149c1.09-4.094-1.344-8.297-5.439-9.387
	c-4.094-1.092-8.297,1.344-9.387,5.439l-12.291,46.149c-1.09,4.094,1.344,8.297,5.439,9.387
	C312.854,124.54,313.518,124.624,314.172,124.624z"/>
<g>
</g>
<g>
</g>
<g>
</g>
<g>
</g>
<g>
</g>
<g>
</g>
<g>
</g>
<g>
</g>
<g>
</g>
<g>
</g>
<g>
</g>
<g>
</g>
<g>
</g>
<g>
</g>
<g>
</g>
</svg>
