<?xml version="1.0" encoding="iso-8859-1"?>
<!-- Generator: Adobe Illustrator 19.0.0, SVG Export Plug-In . SVG Version: 6.00 Build 0)  -->
<svg version="1.1" id="Layer_1" xmlns="http://www.w3.org/2000/svg" xmlns:xlink="http://www.w3.org/1999/xlink" x="0px" y="0px"
	 viewBox="0 0 512.001 512.001" style="enable-background:new 0 0 512.001 512.001;" xml:space="preserve">
<rect x="76.805" y="358.233" style="fill:#2BA5F7;" width="54.964" height="90.133"/>
<rect x="76.805" y="358.233" style="fill:#2197D8;" width="27.188" height="90.133"/>
<g>
	<path style="fill:#F95428;" d="M131.775,448.368v35.376c0,10.822-8.766,19.588-19.588,19.588H96.41
		c-10.822,0-19.6-8.766-19.6-19.588v-35.376H131.775z"/>
	<path style="fill:#F95428;" d="M131.775,325.065v33.17H76.811v-33.17c0-10.822,8.778-19.6,19.6-19.6h15.777
		C123.009,305.465,131.775,314.243,131.775,325.065z"/>
</g>
<g>
	<path style="fill:#E54728;" d="M117.893,502.489c-1.802,0.543-3.719,0.843-5.705,0.843H96.41c-10.822,0-19.6-8.766-19.6-19.588
		v-35.376h27.188v35.376C103.999,492.579,109.854,500.04,117.893,502.489z"/>
	<path style="fill:#E54728;" d="M103.999,358.235H76.811v-33.17c0-10.822,8.778-19.6,19.6-19.6h15.777
		c1.987,0,3.904,0.3,5.705,0.855c-8.038,2.437-13.894,9.91-13.894,18.745V358.235z"/>
</g>
<path style="fill:#333333;" d="M435.182,309.997c-27.624,0-51.695-15.494-63.989-38.244c9.901,7.659,23.76,14.616,41.487,14.616
	c7.713,0,16.158-1.318,25.318-4.466c4.524-1.556,6.931-6.484,5.376-11.008c-1.556-4.524-6.485-6.93-11.008-5.376
	c-42.852,14.728-65.355-21.875-69.869-30.282V110.895c0-24.78-20.16-44.938-44.938-44.938c-24.778,0-44.938,20.16-44.938,44.938
	v314.394c0,17.651-14.361,32.011-32.011,32.011s-32.011-14.361-32.011-32.011V57.031C208.598,25.583,183.015,0,151.568,0
	S94.537,25.583,94.537,57.031v239.844c-14.71,0.968-26.383,13.237-26.383,28.188v158.683c0,15.58,12.676,28.256,28.256,28.256
	h15.777c15.58,0,28.256-12.676,28.256-28.256V325.061c0-15.58-12.676-28.256-28.256-28.256h-0.326V57.031
	c0-21.894,17.813-39.706,39.706-39.706s39.706,17.812,39.706,39.706v368.259c0,27.204,22.132,49.335,49.335,49.335
	s49.335-22.132,49.335-49.335V110.895c0-15.227,12.388-27.614,27.614-27.614c15.226,0,27.614,12.388,27.614,27.614v126.418
	c0,49.631,40.377,90.009,90.009,90.009c4.784,0,8.662-3.878,8.662-8.662C443.843,313.877,439.966,309.997,435.182,309.997z
	 M123.119,439.711h-37.64v-72.816h37.64C123.119,366.895,123.119,439.711,123.119,439.711z M112.187,494.676H96.41
	c-6.028,0-10.932-4.904-10.932-10.932v-26.708h37.64v26.708C123.119,489.772,118.215,494.676,112.187,494.676z M123.119,325.061
	v24.509h-37.64v-24.509c0-6.028,4.904-10.932,10.932-10.932h15.777C118.215,314.129,123.119,319.033,123.119,325.061z"/>
<g>
</g>
<g>
</g>
<g>
</g>
<g>
</g>
<g>
</g>
<g>
</g>
<g>
</g>
<g>
</g>
<g>
</g>
<g>
</g>
<g>
</g>
<g>
</g>
<g>
</g>
<g>
</g>
<g>
</g>
</svg>
