<?xml version="1.0" encoding="iso-8859-1"?>
<!-- Generator: Adobe Illustrator 19.0.0, SVG Export Plug-In . SVG Version: 6.00 Build 0)  -->
<svg version="1.1" id="Layer_1" xmlns="http://www.w3.org/2000/svg" xmlns:xlink="http://www.w3.org/1999/xlink" x="0px" y="0px"
	 viewBox="0 0 512 512" style="enable-background:new 0 0 512 512;" xml:space="preserve">
<path style="fill:#F58E42;" d="M433.021,108.936H78.979c-39.044,0-70.809,31.765-70.809,70.809v65.362h495.66v-65.362
	C503.83,140.701,472.065,108.936,433.021,108.936z"/>
<path style="fill:#F16831;" d="M433.021,174.298c-12.958,0-25.081,3.638-35.404,9.948c-10.323-6.31-22.446-9.948-35.404-9.948
	c-12.958,0-25.081,3.638-35.404,9.948c-10.323-6.31-22.446-9.948-35.404-9.948s-25.081,3.638-35.404,9.948
	c-10.323-6.31-22.446-9.948-35.404-9.948s-25.081,3.638-35.404,9.948c-10.323-6.31-22.446-9.948-35.404-9.948
	s-25.081,3.638-35.404,9.948c-10.323-6.31-22.446-9.948-35.404-9.948c-39.044,0-70.809,31.765-70.809,70.809
	c0,17.974,14.706,32.681,32.681,32.681h430.298c17.974,0,32.681-14.706,32.681-32.681
	C503.83,206.063,472.065,174.298,433.021,174.298z"/>
<g>
	<path style="fill:#F1ECDE;" d="M220.596,206.979c-19.553,0-35.404,15.851-35.404,35.404l-21.787,31.319l21.787,31.319H256
		l21.787-31.319L256,242.383C256,222.83,240.149,206.979,220.596,206.979z"/>
	<path style="fill:#F1ECDE;" d="M397.617,242.383c0-19.553-15.851-35.404-35.404-35.404c-19.553,0-35.404,15.851-35.404,35.404
		l-21.787,31.319l21.787,31.319h92.596L397.617,242.383z"/>
</g>
<g>
	<path style="fill:#E2D8BD;" d="M291.404,206.979c-19.553,0-35.404,15.851-35.404,35.404v62.638h70.809v-62.638
		C326.809,222.83,310.957,206.979,291.404,206.979z"/>
	<path style="fill:#E2D8BD;" d="M149.787,206.979c-19.553,0-35.404,15.851-35.404,35.404l-21.787,62.638h92.596v-62.638
		C185.191,222.83,169.34,206.979,149.787,206.979z"/>
	<path style="fill:#E2D8BD;" d="M433.021,206.979c-19.553,0-35.404,15.851-35.404,35.404v160.681c0,0,70.809-50.094,70.809-160.681
		C468.426,222.83,452.574,206.979,433.021,206.979z"/>
</g>
<path style="fill:#F1ECDE;" d="M78.979,206.979c-19.553,0-35.404,15.851-35.404,35.404c0,110.587,70.809,160.681,70.809,160.681
	V242.383C114.383,222.83,98.532,206.979,78.979,206.979z"/>
<g>
	<path style="fill:#440852;" d="M82.023,166.193c-1.011-0.04-2.025-0.065-3.045-0.065c-14.018,0-27.734,3.854-39.665,11.146
		c-3.851,2.353-5.063,7.382-2.71,11.232c1.54,2.52,4.227,3.911,6.98,3.911c1.452,0,2.923-0.387,4.253-1.2
		c9.364-5.724,20.134-8.749,31.144-8.749c0.804,0,1.605,0.021,2.402,0.052c4.506,0.171,8.309-3.333,8.486-7.842
		C90.043,170.169,86.533,166.371,82.023,166.193z"/>
	<path style="fill:#440852;" d="M401.878,177.274c-11.931-7.292-25.647-11.146-39.665-11.146c-12.377,0-24.518,3.006-35.404,8.728
		c-10.886-5.722-23.027-8.728-35.404-8.728c-12.377,0-24.518,3.006-35.404,8.728c-10.886-5.722-23.027-8.728-35.404-8.728
		c-12.377,0-24.518,3.006-35.404,8.728c-10.886-5.722-23.027-8.728-35.404-8.728c-14.018,0-27.734,3.854-39.665,11.146
		c-3.85,2.353-5.063,7.382-2.71,11.232c2.354,3.85,7.382,5.064,11.232,2.71c9.364-5.724,20.134-8.749,31.144-8.749
		c11.01,0,21.78,3.025,31.144,8.749c2.614,1.599,5.907,1.599,8.521,0c9.364-5.724,20.134-8.749,31.144-8.749
		s21.78,3.025,31.144,8.749c2.614,1.599,5.907,1.599,8.521,0c9.364-5.724,20.134-8.749,31.144-8.749
		c11.01,0,21.78,3.025,31.144,8.749c2.614,1.599,5.906,1.599,8.521,0c9.364-5.724,20.134-8.749,31.144-8.749
		c11.01,0,21.78,3.025,31.144,8.749c1.33,0.813,2.801,1.2,4.253,1.2c2.752,0,5.439-1.39,6.98-3.911
		C406.942,184.657,405.727,179.628,401.878,177.274z"/>
	<path style="fill:#440852;" d="M472.686,177.274c-11.931-7.292-25.647-11.146-39.665-11.146c-1.021,0-2.035,0.025-3.045,0.065
		c-4.509,0.178-8.02,3.977-7.842,8.486c0.179,4.51,3.988,8.025,8.486,7.842c0.796-0.032,1.597-0.052,2.402-0.052
		c11.009,0,21.78,3.025,31.144,8.749c1.33,0.813,2.801,1.2,4.253,1.2c2.752,0,5.439-1.39,6.98-3.911
		C477.75,184.657,476.537,179.628,472.686,177.274z"/>
	<path style="fill:#440852;" d="M433.021,100.766H78.979C35.429,100.766,0,136.195,0,179.745v65.362
		c0,21.976,17.444,39.945,39.21,40.81c6.6,36.835,20.658,64.486,32.987,82.834c18.329,27.28,36.694,40.437,37.468,40.984
		c1.406,0.995,3.059,1.5,4.719,1.5c1.284,0,2.572-0.302,3.754-0.914c2.713-1.404,4.415-4.203,4.415-7.256v-89.872h266.894v89.872
		c0,3.053,1.703,5.853,4.415,7.256c1.182,0.612,2.471,0.914,3.754,0.914c1.66,0,3.314-0.505,4.719-1.5
		c0.772-0.547,19.139-13.704,37.468-40.984c12.328-18.349,26.385-46,32.987-82.834c21.766-0.865,39.21-18.834,39.21-40.81v-65.362
		C512,136.195,476.571,100.766,433.021,100.766z M106.213,384.846c-6.015-6.131-13.471-14.725-20.875-25.841
		c-15.324-23.009-33.593-61.92-33.593-116.623c0-15.017,12.217-27.234,27.234-27.234s27.234,12.217,27.234,27.234V384.846z
		 M334.979,296.851v-21.787c0-4.512-3.658-8.17-8.17-8.17s-8.17,3.658-8.17,8.17v21.787H264.17v-21.787
		c0-4.512-3.658-8.17-8.17-8.17s-8.17,3.658-8.17,8.17v21.787h-54.468v-21.787c0-4.512-3.658-8.17-8.17-8.17s-8.17,3.658-8.17,8.17
		v21.787h-54.468v-54.468c0-15.017,12.217-27.234,27.234-27.234c15.017,0,27.234,12.217,27.234,27.234c0,4.512,3.658,8.17,8.17,8.17
		s8.17-3.658,8.17-8.17c0-15.017,12.217-27.234,27.234-27.234c15.017,0,27.234,12.217,27.234,27.234c0,4.512,3.658,8.17,8.17,8.17
		s8.17-3.658,8.17-8.17c0-15.017,12.217-27.234,27.234-27.234c15.017,0,27.234,12.217,27.234,27.234c0,4.512,3.658,8.17,8.17,8.17
		s8.17-3.658,8.17-8.17c0-15.017,12.217-27.234,27.234-27.234c15.017,0,27.234,12.217,27.234,27.234v54.468H334.979z
		 M426.663,359.006c-7.403,11.117-14.859,19.71-20.875,25.841V242.383c0-15.017,12.217-27.234,27.234-27.234
		c15.017,0,27.234,12.217,27.234,27.234C460.255,297.085,441.987,335.996,426.663,359.006z M495.66,245.106
		c0,12.144-8.88,22.249-20.488,24.175c0.915-8.538,1.424-17.503,1.424-26.899c0-24.027-19.548-43.574-43.574-43.574
		c-14.573,0-27.489,7.199-35.404,18.22c-7.915-11.02-20.831-18.22-35.404-18.22c-14.568,0-27.488,7.184-35.404,18.199
		c-7.916-11.013-20.836-18.199-35.404-18.199c-14.568,0-27.488,7.184-35.404,18.199c-7.916-11.013-20.836-18.199-35.404-18.199
		c-14.568,0-27.488,7.184-35.404,18.199c-7.916-11.013-20.836-18.199-35.404-18.199c-14.573,0-27.489,7.199-35.404,18.22
		c-7.915-11.021-20.831-18.22-35.404-18.22c-24.027,0-43.574,19.548-43.574,43.574c0,9.396,0.508,18.36,1.424,26.899
		c-11.607-1.926-20.488-12.031-20.488-24.175v-65.362c0-34.539,28.099-62.638,62.638-62.638h354.043
		c34.539,0,62.638,28.099,62.638,62.638V245.106z"/>
</g>
<g>
</g>
<g>
</g>
<g>
</g>
<g>
</g>
<g>
</g>
<g>
</g>
<g>
</g>
<g>
</g>
<g>
</g>
<g>
</g>
<g>
</g>
<g>
</g>
<g>
</g>
<g>
</g>
<g>
</g>
</svg>
