<?xml version="1.0" encoding="iso-8859-1"?>
<!-- Generator: Adobe Illustrator 19.0.0, SVG Export Plug-In . SVG Version: 6.00 Build 0)  -->
<svg version="1.1" id="Layer_1" xmlns="http://www.w3.org/2000/svg" xmlns:xlink="http://www.w3.org/1999/xlink" x="0px" y="0px"
	 viewBox="0 0 512 512" style="enable-background:new 0 0 512 512;" xml:space="preserve">
<path style="fill:#FFDB6C;" d="M91.851,164.157c-73.323,93.675-96.854,210.45-74.521,318.483
	c2.032,9.826,11.854,15.97,21.571,13.471l206.025-52.987c-11.769-45.898-2.861-96.56,28.603-136.757
	c31.464-40.197,78.504-61.011,125.885-60.609l1.958-212.721c0.092-10.033-8.231-18.093-18.258-17.704
	C272.882,19.597,165.174,70.484,91.851,164.157z"/>
<path style="fill:#FFB966;" d="M239.953,403.077L98.171,439.541c-9.718,2.499-19.539-3.645-21.571-13.471
	c-22.334-108.034,1.197-224.809,74.521-318.483c3.247-4.148,6.584-8.182,9.964-12.161c-25.32,19.477-48.635,42.416-69.234,68.732
	c-73.323,93.675-96.854,210.45-74.521,318.483c2.032,9.826,11.854,15.97,21.571,13.471l206.025-52.987
	C241.574,430.045,239.905,416.577,239.953,403.077z"/>
<path d="M316.099,63.098c-78.656,15.007-149.183,58.032-198.586,121.148c-52.634,67.243-77.082,151.075-68.84,236.053
	c0.462,4.768,4.476,8.334,9.169,8.334c0.298,0,0.599-0.015,0.901-0.044c5.07-0.491,8.782-5,8.29-10.07
	c-7.783-80.244,15.302-159.406,65.004-222.903C178.691,136.016,245.284,95.39,319.556,81.219c5.004-0.954,8.286-5.785,7.331-10.788
	C325.934,65.423,321.103,62.141,316.099,63.098z"/>
<path d="M339.449,218.096c5.004-0.954,8.286-5.785,7.331-10.788c-0.956-5.005-5.784-8.292-10.789-7.332
	c-44.972,8.581-85.296,33.18-113.542,69.266c-30.094,38.446-44.071,86.376-39.358,134.963c0.462,4.768,4.476,8.334,9.169,8.334
	c0.298,0,0.599-0.015,0.901-0.044c5.07-0.491,8.782-5,8.29-10.07c-4.253-43.852,8.363-87.112,35.524-121.812
	C262.47,248.043,298.862,225.84,339.449,218.096z"/>
<path d="M508.461,478.547l-104.147-81.522l4.322-151.003c0.001-0.032-0.002-0.063-0.002-0.093c0-0.028,0.005-0.057,0.005-0.085
	l1.958-212.722c0.068-7.392-2.816-14.301-8.122-19.452c-5.235-5.082-12.421-7.839-19.715-7.553
	c-19.974,0.774-40.053,3.067-59.677,6.818c-5.004,0.956-8.284,5.787-7.328,10.79c0.957,5.003,5.786,8.294,10.79,7.327
	c18.72-3.577,37.874-5.765,56.928-6.503c2.306-0.077,4.495,0.746,6.151,2.356c1.65,1.602,2.547,3.75,2.526,6.047l-1.875,203.751
	c-48.856,2.205-93.65,25.196-124.007,63.979c-30.359,38.784-41.919,87.79-32.325,135.745L36.604,487.178
	c-2.228,0.574-4.526,0.218-6.477-1c-1.959-1.221-3.297-3.142-3.764-5.406c-22.655-109.591,3.86-222.921,72.751-310.93
	c47.065-60.128,110.225-104.177,182.653-127.384c4.852-1.556,7.524-6.747,5.969-11.598c-1.554-4.852-6.748-7.52-11.598-5.969
	C200.176,49.231,133.94,95.423,84.588,158.473C12.349,250.762-15.458,369.597,8.298,484.509c1.478,7.149,5.877,13.463,12.068,17.324
	c4.315,2.691,9.163,4.072,14.098,4.071c2.241,0,4.5-0.283,6.734-0.858l206.025-52.987c0.036-0.01,0.07-0.023,0.106-0.033
	c0.022-0.006,0.046-0.007,0.068-0.014l145.544-40.459l104.149,81.523c1.687,1.32,3.691,1.96,5.679,1.96
	c2.74,0,5.45-1.214,7.269-3.538C513.179,487.485,512.473,481.688,508.461,478.547z M251.812,431.637
	c-3.479-18.139-3.569-36.43-0.418-54.104l112.375,22.981L251.812,431.637z M275.333,319.491l76.283,59.71l-95.834-19.598
	C260.181,345.494,266.723,331.98,275.333,319.491z M386.621,370.41l-47.053-103.603c15.766-6.705,32.752-10.676,50.35-11.61
	L386.621,370.41z M323.07,275.09l41.112,90.521l-77.477-60.645C297.32,292.976,309.597,282.947,323.07,275.09z"/>
<g>
</g>
<g>
</g>
<g>
</g>
<g>
</g>
<g>
</g>
<g>
</g>
<g>
</g>
<g>
</g>
<g>
</g>
<g>
</g>
<g>
</g>
<g>
</g>
<g>
</g>
<g>
</g>
<g>
</g>
</svg>
