<?xml version="1.0" encoding="iso-8859-1"?>
<!-- Generator: Adobe Illustrator 19.0.0, SVG Export Plug-In . SVG Version: 6.00 Build 0)  -->
<svg version="1.1" id="Layer_1" xmlns="http://www.w3.org/2000/svg" xmlns:xlink="http://www.w3.org/1999/xlink" x="0px" y="0px"
	 viewBox="0 0 512 512" style="enable-background:new 0 0 512 512;" xml:space="preserve">
<path style="fill:#A16125;" d="M28.997,509.009L2.991,483.003c-3.988-3.988-3.988-10.452,0-14.44L391.09,80.464
	c3.988-3.988,10.452-3.988,14.44,0l26.006,26.006c3.988,3.988,3.988,10.452,0,14.44l-388.1,388.099
	C39.45,512.996,32.984,512.996,28.997,509.009z"/>
<path style="fill:#5E3C16;" d="M431.536,106.47l-13.003-13.003L15.994,496.005l13.003,13.003c3.988,3.988,10.452,3.988,14.44,0
	l388.099-388.099C435.523,116.923,435.523,110.458,431.536,106.47z"/>
<g>
	<path style="fill:#E1E1E3;" d="M335.269,203.538l51.579-51.579l123.425,163.07c2.567,3.392,2.239,8.156-0.769,11.164
		c-3.008,3.008-7.772,3.336-11.164,0.769L335.269,203.538z"/>
	<path style="fill:#E1E1E3;" d="M308.462,176.73l51.579-51.579L196.97,1.727c-3.392-2.567-8.156-2.239-11.164,0.769
		c-3.008,3.008-3.336,7.772-0.769,11.164L308.462,176.73z"/>
</g>
<g>
	<path style="fill:#ACACB2;" d="M335.269,203.538l163.07,123.424c3.392,2.567,8.156,2.239,11.164-0.769L361.059,177.748
		L335.269,203.538z"/>
	<path style="fill:#ACACB2;" d="M185.806,2.496L185.806,2.496c-3.008,3.008-3.336,7.772-0.769,11.164l123.425,163.07l25.79-25.79
		L185.806,2.496z"/>
</g>
<path style="fill:#797882;" d="M327.418,233.476l-48.895-48.895c-4.315-4.315-4.315-11.312,0-15.627l71.044-71.044
	c4.315-4.315,11.312-4.315,15.627,0l48.895,48.895c4.315,4.315,4.315,11.312,0,15.627l-71.044,71.044
	C338.73,237.792,331.734,237.792,327.418,233.476z"/>
<path style="fill:#2D2E30;" d="M414.09,146.805l-24.448-24.448l-86.671,86.671l24.448,24.447c4.315,4.315,11.312,4.315,15.627,0
	l71.044-71.044C418.405,158.117,418.405,151.12,414.09,146.805z"/>
<rect x="266.561" y="205.793" transform="matrix(-0.7071 -0.7071 0.7071 -0.7071 350.5471 578.8741)" style="fill:#5E3C16;" width="57.202" height="22.086"/>
<g>
</g>
<g>
</g>
<g>
</g>
<g>
</g>
<g>
</g>
<g>
</g>
<g>
</g>
<g>
</g>
<g>
</g>
<g>
</g>
<g>
</g>
<g>
</g>
<g>
</g>
<g>
</g>
<g>
</g>
</svg>
