<?xml version="1.0" encoding="iso-8859-1"?>
<!-- Generator: Adobe Illustrator 19.0.0, SVG Export Plug-In . SVG Version: 6.00 Build 0)  -->
<svg version="1.1" id="Layer_1" xmlns="http://www.w3.org/2000/svg" xmlns:xlink="http://www.w3.org/1999/xlink" x="0px" y="0px"
	 viewBox="0 0 504.124 504.124" style="enable-background:new 0 0 504.124 504.124;" xml:space="preserve">
<path style="fill:#C4791E;" d="M488.701,419.977c-9.507,9.515-22.654,15.407-37.187,15.415c-86.292,0-167.416-33.611-228.447-94.625
	c-61.015-61.023-94.618-142.155-94.618-228.439c0.016-29.05,5.404-39.211,34.186-43.134c44.512-6.073,36.848,48.254,36.848,77.304
	c0,58.195,27.223,104.117,68.372,145.25c41.141,41.157,117.839,64.748,176.026,64.748c29.05-0.008,60.243-2.781,60.243,26.27
	C504.124,397.315,498.224,410.461,488.701,419.977z"/>
<g>
	<path style="fill:#AD6210;" d="M267.856,291.764c41.141,41.157,117.839,64.748,176.026,64.748
		c29.05-0.008,60.243-2.781,60.243,26.27c0,14.541-5.9,27.687-15.423,37.203c-9.507,9.515-22.654,15.407-37.187,15.415"/>
	<path style="fill:#AD6210;" d="M128.458,112.336c0.016-29.05,5.404-39.211,34.186-43.134"/>
	<path style="fill:#AD6210;" d="M162.636,69.202c-13.351,1.82-21.638,5.025-26.726,10.791
		c9.964,68.364,41.48,131.458,91.199,181.201c19.873,19.873,41.937,36.793,65.568,50.641c-9.169-6.136-17.573-12.816-24.828-20.07
		c-41.149-41.141-68.372-87.064-68.372-145.25C199.484,117.456,207.156,63.136,162.636,69.202z"/>
</g>
<path style="fill:#97AFC6;" d="M2.75,176.131c-17.109-154.971,48.53-60.723,115.956-68.175
	c67.387-7.412,99.848-23.828,107.276,43.536c7.428,67.395-27.813,58.447-95.216,65.851C63.339,224.802,19.835,331.109,2.75,176.131z
	"/>
<path style="fill:#7595AF;" d="M225.974,151.492c-7.428-67.371-39.889-50.956-107.276-43.536
	c-29.735,3.293-59.116-13.186-81.203-19.361c-8.074,10.689-10.681,34.729-5.419,82.487c5.782,52.358,14.572,74.831,26.277,81.432
	c19.763-11.296,43.937-32.012,72.397-35.163c4.45-0.488,8.751-0.906,12.942-1.276c5.293-1.796,10.752-3.151,16.4-3.773
	c15.675-1.725,29.546-2.576,41.614-3.702C221.319,202.211,230.023,188.222,225.974,151.492z"/>
<g>
</g>
<g>
</g>
<g>
</g>
<g>
</g>
<g>
</g>
<g>
</g>
<g>
</g>
<g>
</g>
<g>
</g>
<g>
</g>
<g>
</g>
<g>
</g>
<g>
</g>
<g>
</g>
<g>
</g>
</svg>
