<?xml version="1.0" encoding="iso-8859-1"?>
<!-- Generator: Adobe Illustrator 19.0.0, SVG Export Plug-In . SVG Version: 6.00 Build 0)  -->
<svg version="1.1" id="Layer_1" xmlns="http://www.w3.org/2000/svg" xmlns:xlink="http://www.w3.org/1999/xlink" x="0px" y="0px"
	 viewBox="0 0 512 512" style="enable-background:new 0 0 512 512;" xml:space="preserve">
<path style="fill:#8ECAC1;" d="M256,10.199L256,10.199c5.612,0,10.258,4.357,10.619,9.956l19.745,305.835h-60.729L245.38,20.156
	C245.742,14.556,250.389,10.199,256,10.199z"/>
<rect x="225.637" y="325.987" style="fill:#FFAA7C;" width="60.726" height="32.964"/>
<path style="fill:#F7E6C5;" d="M225.636,358.958h60.729v17.351c0,10.541-8.545,19.087-19.087,19.087h-22.557
	c-10.541,0-19.087-8.545-19.087-19.087v-17.351H225.636z"/>
<path style="fill:#FF7124;" d="M216.674,501.801h78.651c4.702,0,8.767-4.458,11.636-10.49c5.47-11.503,4.659-25.016-1.678-36.064
	l-34.338-59.874h-29.892l-34.338,59.874c-6.337,11.049-7.148,24.562-1.678,36.064C207.907,497.343,211.972,501.801,216.674,501.801z
	"/>
<g>
	<path style="fill:#4D3D36;" d="M215.437,376.309c0,9.451,4.504,17.865,11.474,23.224l-29.041,50.64
		c-8.108,14.139-8.871,31.155-2.041,45.518c6.746,14.19,15.957,16.31,20.845,16.31h78.651c4.889,0,14.099-2.119,20.845-16.307
		c6.831-14.364,6.069-31.38-2.04-45.519l-29.041-50.64c6.969-5.359,11.474-13.773,11.474-23.224v-50.319l-0.021-0.657
		L276.798,19.498C276.091,8.564,266.956,0,256,0s-20.091,8.564-20.798,19.499l-19.745,305.835l-0.021,0.657v50.318H215.437z
		 M276.166,348.759h-40.331v-12.57h40.331V348.759z M235.835,376.309v-7.152h40.331v7.152c0,4.741-3.735,8.615-8.415,8.863h-23.5
		C239.569,384.924,235.835,381.05,235.835,376.309z M255.558,20.812c0.015-0.233,0.209-0.414,0.442-0.414s0.426,0.182,0.442,0.414
		l19.045,294.979h-38.972L255.558,20.812z M297.751,486.931c-1.324,2.784-2.535,4.164-3.132,4.67h-2.064v-12.1
		c0-5.633-4.567-10.199-10.199-10.199c-5.632,0-10.199,4.566-10.199,10.199v12.1h-5.956v-19.196c0-5.633-4.567-10.199-10.199-10.199
		c-5.632,0-10.199,4.566-10.199,10.199v19.196h-5.955v-12.1c0-5.633-4.567-10.199-10.199-10.199s-10.199,4.566-10.199,10.199v12.1
		h-2.064c-0.597-0.506-1.808-1.886-3.133-4.671c-3.959-8.325-3.467-18.272,1.315-26.611l31.385-54.726h18.104l31.385,54.726
		C301.218,468.659,301.71,478.607,297.751,486.931z"/>
	<path style="fill:#4D3D36;" d="M256,429.399c-5.632,0-10.199,4.566-10.199,10.199v2.028c0,5.633,4.567,10.199,10.199,10.199
		c5.632,0,10.199-4.566,10.199-10.199v-2.028C266.199,433.965,261.633,429.399,256,429.399z"/>
</g>
<g>
</g>
<g>
</g>
<g>
</g>
<g>
</g>
<g>
</g>
<g>
</g>
<g>
</g>
<g>
</g>
<g>
</g>
<g>
</g>
<g>
</g>
<g>
</g>
<g>
</g>
<g>
</g>
<g>
</g>
</svg>
