<?xml version="1.0" encoding="iso-8859-1"?>
<!-- Generator: Adobe Illustrator 19.0.0, SVG Export Plug-In . SVG Version: 6.00 Build 0)  -->
<svg version="1.1" id="Layer_1" xmlns="http://www.w3.org/2000/svg" xmlns:xlink="http://www.w3.org/1999/xlink" x="0px" y="0px"
	 viewBox="0 0 512 512" style="enable-background:new 0 0 512 512;" xml:space="preserve">
<path style="fill:#F7B239;" d="M256.003,222.492c11.254,0,20.391,9.124,20.391,20.391c0,11.254-9.137,20.391-20.391,20.391
	c-11.267,0-20.391-9.137-20.391-20.391C235.612,231.617,244.736,222.492,256.003,222.492z"/>
<polygon style="fill:#F95428;" points="331.947,108.114 331.947,149.615 308.874,149.615 203.132,149.615 180.046,149.615 
	180.046,108.114 "/>
<path style="fill:#2BA5F7;" d="M256.003,379.347l-63.317-116.008c-4.042-7.404-6.031-16.259-6.031-25.088
	c0-10.433,2.785-20.815,8.239-28.681c5.274-7.61,8.239-17.927,8.239-28.694v-31.261h105.742v31.261
	c0,5.377,0.744,10.651,2.143,15.528s3.452,9.355,6.096,13.166c10.074,14.527,11.023,37.626,2.207,53.769L256.003,379.347z
	 M256.003,263.275c11.254,0,20.391-9.137,20.391-20.391c0-11.267-9.137-20.391-20.391-20.391c-11.267,0-20.391,9.124-20.391,20.391
	C235.612,254.138,244.736,263.275,256.003,263.275z"/>
<g>
	<polygon style="fill:#F95428;" points="452.074,9.623 411.01,50.688 100.984,50.688 59.919,9.623 	"/>
	<path style="fill:#F95428;" d="M452.074,9.623v268.101c0,74.994-41.642,143.791-108.077,178.58l-87.994,46.069v-46.352
		l68.937-36.098c53.089-27.796,86.069-82.283,86.069-142.199V50.688L452.074,9.623z"/>
	<path style="fill:#F95428;" d="M256.003,456.022v46.352l-87.994-46.069c-66.448-34.79-108.09-103.586-108.09-178.58V9.623
		l41.065,41.065v227.037c0,59.916,32.98,114.404,86.069,142.199L256.003,456.022z"/>
</g>
<path style="fill:#F7B239;" d="M411.01,50.688v227.037c0,59.916-32.98,114.404-86.069,142.199l-68.937,36.098l-68.95-36.098
	c-53.089-27.796-86.069-82.283-86.069-142.199V50.688H411.01z M331.947,149.615v-41.501H180.046v41.501h23.086v31.261
	c0,10.767-2.964,21.084-8.239,28.694c-5.454,7.866-8.239,18.248-8.239,28.681c0,8.829,1.989,17.683,6.031,25.088l63.317,116.008
	l63.317-116.008c8.816-16.144,7.866-39.242-2.207-53.769c-2.644-3.811-4.697-8.29-6.096-13.166
	c-1.399-4.876-2.143-10.151-2.143-15.528v-31.26L331.947,149.615L331.947,149.615z"/>
<g>
	<path style="fill:#333333;" d="M452.073,0H59.926c-5.315,0-9.625,4.309-9.625,9.625v268.096
		c0,78.844,43.391,150.543,113.242,187.114l87.991,46.068c1.397,0.731,2.931,1.097,4.465,1.097c1.534,0,3.066-0.366,4.465-1.097
		l87.993-46.068c69.851-36.571,113.242-108.268,113.242-187.114V9.625C461.698,4.309,457.39,0,452.073,0z M407.023,41.065H104.976
		L83.161,19.249h345.678L407.023,41.065z M255.999,445.161l-64.481-33.76l0,0c-49.903-26.127-80.904-77.35-80.904-133.68V60.314
		h290.77v217.407c0,56.329-31.001,107.552-80.904,133.68L255.999,445.161z M69.55,277.721V32.859l21.816,21.816v223.046
		c0,63.516,34.955,121.272,91.225,150.733l63.784,33.396v24.623l-73.904-38.693C108.988,414.543,69.55,349.38,69.55,277.721z
		 M339.527,447.781l-73.904,38.692V461.85l63.785-33.396c56.27-29.461,91.225-87.218,91.225-150.733V54.675l21.816-21.816v244.86
		C442.449,349.38,403.012,414.543,339.527,447.781z"/>
	<path style="fill:#333333;" d="M325.018,204.081c-4.144-5.979-6.522-14.434-6.522-23.2v-21.646h13.451
		c5.315,0,9.625-4.309,9.625-9.625v-41.498c0-5.315-4.309-9.625-9.625-9.625H180.05c-5.315,0-9.625,4.309-9.625,9.625v41.5
		c0,5.315,4.309,9.625,9.625,9.625h13.451v21.646c0,8.766-2.377,17.222-6.522,23.2c-12.192,17.589-13.347,44.45-2.749,63.871
		l63.319,116.012c1.686,3.09,4.926,5.014,8.448,5.014s6.762-1.924,8.448-5.014l63.318-116.012
		C338.367,248.53,337.211,221.669,325.018,204.081z M189.675,117.736h132.649v22.251H189.675V117.736z M255.999,253.648
		c-5.938,0-10.768-4.83-10.768-10.768c0-5.936,4.83-10.768,10.768-10.768c5.936,0,10.768,4.83,10.768,10.768
		C266.767,248.818,261.937,253.648,255.999,253.648z M310.87,258.73l-45.246,82.899v-70.325
		c11.843-4.022,20.393-15.24,20.393-28.424c0-16.55-13.465-30.017-30.017-30.017s-30.017,13.465-30.017,30.017
		c0,13.186,8.549,24.404,20.392,28.426v70.325l-45.246-82.899l0,0c-7.067-12.947-6.333-32.136,1.672-43.683
		c6.416-9.256,9.951-21.39,9.951-34.167v-21.646h86.496v21.646c0,12.776,3.534,24.911,9.951,34.167
		C317.204,226.594,317.938,245.781,310.87,258.73z"/>
</g>
<g>
</g>
<g>
</g>
<g>
</g>
<g>
</g>
<g>
</g>
<g>
</g>
<g>
</g>
<g>
</g>
<g>
</g>
<g>
</g>
<g>
</g>
<g>
</g>
<g>
</g>
<g>
</g>
<g>
</g>
</svg>
