<?xml version="1.0" encoding="iso-8859-1"?>
<!-- Generator: Adobe Illustrator 19.0.0, SVG Export Plug-In . SVG Version: 6.00 Build 0)  -->
<svg version="1.1" id="Layer_1" xmlns="http://www.w3.org/2000/svg" xmlns:xlink="http://www.w3.org/1999/xlink" x="0px" y="0px"
	 viewBox="0 0 504.111 504.111" style="enable-background:new 0 0 504.111 504.111;" xml:space="preserve">
<path style="fill:#2D5CA0;" d="M448.433,358.55c9.232,9.232,9.232,24.206,0,33.445l-10.461,10.453c-9.232,9.24-24.198,9.24-33.445,0
	L189.204,187.108c-9.247-9.24-9.247-24.214,0-33.445l10.445-10.461c9.247-9.232,24.214-9.232,33.445,0.008L448.433,358.55z"/>
<path style="fill:#4078BC;" d="M437.973,402.448c-9.232,9.24-24.198,9.24-33.445,0L189.204,187.108
	c-9.247-9.24-9.247-24.214,0-33.445"/>
<path style="fill:#0E203A;" d="M492.694,383.976c9.232,9.232,9.232,24.206,0,33.445l-29.279,29.271
	c-9.232,9.232-24.214,9.24-33.461,0L315.676,332.406c-9.232-9.24-9.232-24.214,0-33.453l29.279-29.263
	c9.232-9.24,24.198-9.24,33.445-0.008L492.694,383.976z"/>
<path style="fill:#233A63;" d="M463.415,446.692c-9.232,9.232-24.214,9.24-33.461,0L315.676,332.406
	c-9.232-9.24-9.232-24.214,0-33.453"/>
<path style="fill:#2D5CA0;" d="M502.091,412.199c2.694,2.694,2.694,7.058,0,9.744l-34.154,34.162c-2.694,2.694-7.058,2.694-9.736,0
	l0,0c-2.71-2.702-2.71-7.058-0.016-9.752l34.154-34.154C495.033,409.505,499.397,409.505,502.091,412.199L502.091,412.199z"/>
<g>
	<path style="fill:#233A63;" d="M364.465,292.683c1.355,1.347,1.339,3.529,0,4.876l-32.752,32.752c-1.355,1.339-3.521,1.347-4.876,0
		l0,0c-1.339-1.347-1.339-3.529,0.016-4.876l32.737-32.752C360.936,291.336,363.11,291.336,364.465,292.683L364.465,292.683z"/>
	<path style="fill:#233A63;" d="M381.188,309.406c1.355,1.347,1.355,3.529,0,4.876l-32.752,32.752c-1.339,1.347-3.521,1.355-4.86,0
		l0,0c-1.355-1.347-1.355-3.529,0-4.868l32.737-32.752C377.659,308.059,379.849,308.059,381.188,309.406L381.188,309.406z"/>
	<path style="fill:#233A63;" d="M397.911,326.136c1.355,1.347,1.355,3.521,0,4.868l-32.752,32.752c-1.339,1.347-3.521,1.355-4.86,0
		l0,0c-1.355-1.347-1.355-3.521,0-4.868l32.752-32.752C394.382,324.789,396.572,324.781,397.911,326.136L397.911,326.136z"/>
	<path style="fill:#233A63;" d="M414.649,342.859c1.339,1.347,1.339,3.529-0.016,4.868l-32.752,32.752
		c-1.339,1.355-3.521,1.355-4.86,0.008l0,0c-1.355-1.347-1.355-3.529,0-4.876l32.752-32.752
		C411.104,341.512,413.294,341.504,414.649,342.859L414.649,342.859z"/>
	<path style="fill:#233A63;" d="M431.372,359.582c1.339,1.355,1.339,3.529,0,4.876L398.62,397.21c-1.355,1.347-3.537,1.347-4.876,0
		l0,0c-1.355-1.347-1.355-3.529,0-4.876l32.752-32.752C427.827,358.242,430.017,358.235,431.372,359.582L431.372,359.582z"/>
	<path style="fill:#233A63;" d="M448.095,376.304c1.355,1.355,1.339,3.529,0,4.876l-32.752,32.752
		c-1.355,1.347-3.537,1.355-4.876,0.008l0,0c-1.355-1.355-1.355-3.529,0-4.876l32.752-32.752
		C444.55,374.965,446.74,374.965,448.095,376.304L448.095,376.304z"/>
	<path style="fill:#233A63;" d="M464.817,393.035c1.355,1.347,1.339,3.521,0,4.876l-32.752,32.752c-1.355,1.339-3.537,1.347-4.876,0
		l0,0c-1.355-1.355-1.355-3.529,0-4.876l32.752-32.752C461.28,391.696,463.462,391.696,464.817,393.035L464.817,393.035z"/>
</g>
<polygon style="fill:#97AFC6;" points="242.507,114.987 144.242,288.508 0,144.242 173.505,45.985 "/>
<polyline style="fill:#BFD2E2;" points="0,144.242 173.505,45.985 242.507,114.987 "/>
<polygon style="fill:#728DA3;" points="163.139,255.134 242.507,114.987 173.505,45.985 33.367,125.353 "/>
<polyline style="fill:#658296;" points="163.139,255.134 242.507,114.987 173.505,45.985 "/>
<g>
</g>
<g>
</g>
<g>
</g>
<g>
</g>
<g>
</g>
<g>
</g>
<g>
</g>
<g>
</g>
<g>
</g>
<g>
</g>
<g>
</g>
<g>
</g>
<g>
</g>
<g>
</g>
<g>
</g>
</svg>
